<svg xmlns="http://www.w3.org/2000/svg" shape-rendering="geometricPrecision" text-rendering="geometricPrecision" image-rendering="optimizeQuality" fill-rule="evenodd" clip-rule="evenodd" viewBox="0 0 512 472.42"><path fill-rule="nonzero" d="M147.66 175.66c30.37-3.32 58.92-12.46 80.91-26.72 21.09-13.68 36.1-32.07 40.68-54.45a6.164 6.164 0 0 1 7.27-4.8c2.21.45 3.91 2.04 4.59 4.03 8.14 23.65 18.79 43.28 33.15 57.49 12.93 12.79 29 21.25 49.13 24.37 1.29-7.7 1.72-15.15 1.34-22.35a91.948 91.948 0 0 0-5.06-25.69c-7.8-22.31-22.27-40.67-40.66-53.36-18.53-12.78-41.09-19.82-64.87-19.36-22.79.42-43 6.3-59.52 17.41-16.09 10.81-28.77 26.67-37 47.36-3.65 9.17-6.28 18.98-7.91 29.38-1.33 8.49-2.01 17.39-2.05 26.69zm235.27 182.86c-12.48-25.06-28.11-46.54-46.23-66.67a74.08 74.08 0 0 1-2.56 3.36c-9.7 11.96-21.61 18.61-35.68 19.99-14.13 9.55-28.4 14.61-42.82 14.75-14.59.14-29.07-4.74-43.42-15.05-15.2-3.81-27.18-11.87-36.04-24.02-18.49 20.41-34.43 42.18-47.12 67.64l38.46-.94 86.34 68.95 90.61-68.95 38.46.94zm-44.87-68.63C472.54 341.31 512 331.21 512 472.42H0c0-142.56 39.73-131.1 175.14-182.99l-.56-.83c-8.48-12.64-13.74-29.26-15.89-49.68-8.4-4.91-14.12-12.39-17.78-21.84-3.59-9.26-5.12-20.4-5.22-32.83-.16-.53-.25-1.09-.26-1.67-.34-12.41.35-24.26 2.11-35.49 1.77-11.31 4.64-22 8.64-32.03 8.51-21.37 21.34-38.18 37.58-50.24-.57-.6-1.04-1.33-1.34-2.16-2.73-7.57-3.6-14.49-2.71-20.79.91-6.55 3.68-12.34 8.17-17.4C200.25 10.51 220.24 3.15 241.06.83c24.24-2.71 49.99 1.4 65.94 9.8 11.74 6.17 19.89 13.01 23.76 21.65 4.02 8.98 3.27 19.21-3.07 31.71-.16.31-.33.59-.53.86 19.95 14.1 35.62 34.25 44.15 58.64 3.27 9.34 5.21 19.05 5.74 29.12.48 9.19-.2 18.66-2.09 28.42.22.51.38 1.07.47 1.64 1.62 11.2 1.15 22.23-2.12 33.02-3.12 10.31-8.78 20.34-17.57 30.01-4.32 18.39-10.22 33.11-17.68 44.19zM174.5 310.51l-11.58 21.1 93.03 69.74 93.12-70.36-16.46-16.26c-40.04 41.39-116.7 36.78-158.11-4.22zm103.91-44.53a5.215 5.215 0 0 1 8.34 6.26c-.79 1.06-1.67 2.03-2.62 2.89-6.34 5.79-16.68 8.21-27.09 7.8-10.17-.39-20.68-3.47-27.67-8.69l-.34-.28c-1.29-.99-2.45-2.05-3.47-3.15a5.23 5.23 0 0 1 .35-7.38 5.22 5.22 0 0 1 7.38.35c.61.67 1.3 1.3 2.05 1.88l.29.2c5.31 3.98 13.6 6.34 21.77 6.65 7.93.31 15.5-1.27 19.7-5.11.51-.46.95-.94 1.31-1.42zm8.6-54.83a4.882 4.882 0 0 1-6.83-.91 4.882 4.882 0 0 1 .91-6.83c6.41-4.9 12.93-7.2 19.54-7.12 6.57.07 13.01 2.5 19.34 7.05a4.852 4.852 0 0 1 1.11 6.78 4.865 4.865 0 0 1-6.79 1.11c-4.69-3.37-9.28-5.17-13.74-5.22-4.41-.05-8.93 1.61-13.54 5.14zm-88.69 0a4.882 4.882 0 0 1-6.83-.91 4.882 4.882 0 0 1 .91-6.83c6.41-4.9 12.93-7.2 19.54-7.12 6.56.07 13.01 2.5 19.34 7.05a4.852 4.852 0 0 1 1.11 6.78 4.865 4.865 0 0 1-6.79 1.11c-4.69-3.37-9.28-5.17-13.74-5.22-4.41-.05-8.93 1.61-13.54 5.14zm42.66-7.76c-.34-.66-.52-1.41-.52-2.2v-.28l-.19-.52c-1.28-3.23-4.35-5.9-9.08-7.92l-.07-.03c-2.96-1.27-6.2-2.22-9.55-2.82-3.41-.61-6.96-.87-10.51-.77-3.23.1-6.49.29-9.63.71-2.97.39-5.84.99-8.46 1.92-4.5 1.6-7.61 4.14-9.35 7.34-1.85 3.39-2.28 7.72-1.34 12.67 1.14 6.03 4.92 10.97 9.86 14.44 5.62 3.95 12.73 5.98 19.28 5.6 6.04-.35 11.8-2.5 16.59-5.75 4.99-3.39 8.93-7.96 11.05-12.92l.03-.08c1.52-3.55 2.14-6.7 1.89-9.39zm7.63-7.08h14.79c2.34-5.3 6.98-9.47 13.78-12.39l.07-.03c3.54-1.51 7.46-2.66 11.55-3.39 4.05-.72 8.25-1.04 12.4-.91 3.53.1 7.11.32 10.57.77 3.61.48 7.12 1.22 10.35 2.37 6.8 2.41 11.6 6.44 14.44 11.66 2.88 5.34 3.63 11.75 2.29 18.81-1.64 8.63-6.85 15.56-13.64 20.32-7.34 5.13-16.58 7.77-25.14 7.27-7.78-.45-15.15-3.19-21.27-7.34-6.44-4.38-11.56-10.35-14.38-16.92l-.05-.11c-1.56-3.65-2.43-7.11-2.63-10.35h-11.47c-.21 3.24-1.08 6.7-2.63 10.35l-.05.11c-2.83 6.57-7.94 12.54-14.38 16.92-6.13 4.15-13.5 6.89-21.28 7.34-8.55.5-17.79-2.14-25.12-7.27-6.8-4.76-12.01-11.69-13.65-20.32-1.34-7.06-.59-13.47 2.3-18.8 2.82-5.23 7.62-9.26 14.42-11.67 3.24-1.15 6.74-1.89 10.36-2.37 3.46-.45 7.03-.67 10.57-.77 4.15-.13 8.35.19 12.4.91 4.08.73 8 1.88 11.55 3.39l.07.03c6.79 2.92 11.43 7.09 13.78 12.39zm22.91 4.65.01.23c0 .77-.18 1.51-.5 2.16-.26 2.7.36 5.85 1.88 9.43l.03.08c2.13 4.96 6.07 9.53 11.06 12.92 4.79 3.25 10.54 5.4 16.58 5.75 6.56.38 13.66-1.65 19.3-5.6 4.93-3.47 8.7-8.41 9.85-14.44.94-4.95.51-9.28-1.33-12.67-1.76-3.2-4.86-5.74-9.36-7.34-2.62-.93-5.49-1.53-8.47-1.92-3.14-.42-6.39-.61-9.62-.71-3.55-.1-7.11.16-10.52.77-3.35.6-6.59 1.55-9.55 2.82l-.07.03c-4.73 2.02-7.79 4.69-9.08 7.92l-.21.57zm45.25-142.69c4.43-8.81 5.16-15.56 2.74-20.97-2.6-5.81-8.91-10.84-18.25-15.76-13.96-7.34-36.93-10.89-58.85-8.45-18.08 2.02-35.19 8.12-45.31 19.54-2.85 3.22-4.61 6.86-5.18 10.93-.59 4.25.04 9.11 1.99 14.6 17.25-9.95 37.55-15.24 60.04-15.66 22.56-.43 44.15 5.24 62.82 15.77zM148.09 188.03c.34 9.42 1.65 17.76 4.31 24.61 2.97 7.67 7.7 13.48 14.75 16.81 2.06.97 3.33 2.94 3.51 5.05 1.76 19.91 6.42 35.72 14.16 47.25 7.43 11.08 17.86 18.28 31.41 21.43.9.2 1.7.59 2.39 1.12 12.42 9.13 24.74 13.46 36.92 13.33 12.26-.12 24.68-4.76 37.25-13.51 1.01-.7 2.16-1.06 3.3-1.1 11.18-.79 20.69-5.97 28.49-15.58 8.36-10.32 14.88-25.66 19.51-46.08.25-1.11.79-2.09 1.53-2.86 8.04-8.56 13.14-17.38 15.86-26.39 2.37-7.81 2.97-15.84 2.17-24.03-23.88-3.25-42.87-13.04-58.08-28.08-12.25-12.12-21.97-27.6-29.78-45.77-8.04 18.09-22.28 33.21-40.51 45.04-23.87 15.48-54.65 25.33-87.19 28.76z"/></svg>