<svg xmlns="http://www.w3.org/2000/svg" shape-rendering="geometricPrecision" text-rendering="geometricPrecision" image-rendering="optimizeQuality" fill-rule="evenodd" clip-rule="evenodd" viewBox="0 0 413 511.796"><path fill="#2C2C2C" fill-rule="nonzero" d="M118.517 303.653c-4.361 24.87-15.573 44.728-32.183 57.943-16.997 13.521-39.349 19.879-65.503 17.333a127.745 127.745 0 01-7.445-.944c-4.706-.43-8.692-4.02-9.425-8.903-5.815-38.12-5.433-67.187 2.518-89.894 8.365-23.89 24.59-40.241 50.109-51.845l.003.007c.978-.44 2.01-.723 3.058-.848 5.522 12.964 17.249 23.653 33.319 25.711 5.198 20.49 14.139 37.639 25.549 51.44zm236.844-76.708c.356.115.705.251 1.048.405l.004-.007c25.519 11.604 41.744 27.954 50.108 51.845 7.951 22.707 8.334 51.774 2.519 89.894-.733 4.883-4.719 8.473-9.426 8.903-2.436.383-4.919.698-7.444.944-26.154 2.546-48.507-3.813-65.504-17.333-16.281-12.953-27.374-32.29-31.915-56.472 11.546-13.984 20.544-31.597 25.669-52.911 18.449-2.892 29.901-13.012 34.941-25.268z"/><path fill="#FEB97E" d="M347.729 183.42c19.811 22.37 12.648 62.53-27.309 68.793-30.363 126.272-196.22 123.128-227.452 0-34.023-4.356-48.595-47.398-25.978-68.822 5.91.073 11.716.32 17.82.58 43.547 1.853 100.227 4.257 123.505-38.256 23.278 42.513 79.958 40.109 123.505 38.256 5.445-.232 10.653-.454 15.909-.551z"/><path fill="#2B2B2B" fill-rule="nonzero" d="M208.315 145.715c-23.278 42.513-79.958 40.109-123.505 38.256-7.276-.31-14.13-.602-21.238-.602-5.806 0-10.513-4.707-10.513-10.513l.003-.266c-2.573-52.421 10.683-91.667 32.88-119.469C112.669 19.647 152.039 3.08 192.338.186c7.282-.523 12.238.892 15.685 3.303 3.159-2.398 7.71-3.831 14.423-3.418 40.684 2.501 80.602 18.869 107.727 52.42 22.621 27.978 36.125 67.678 33.356 120.899-.286 5.604-4.922 9.956-10.472 9.951v.028c-7.109 0-13.962.292-21.237.602-43.547 1.853-100.227 4.257-123.505-38.256z"/><path fill="#BD2122" d="M109.443 346.488h33.622c.951 0 .682-.121.879.871 3.775 18.875 15.039 32.122 29.355 39.669a65.046 65.046 0 0010.363 4.35 39.925 39.925 0 0022.869 7.176c9.328 0 17.932-3.209 24.76-8.573a66.982 66.982 0 004.454-1.914c15.684-7.428 28.492-21.242 33.322-41.545h.002l-.006-.034H305.287c15.877 0 30.303 6.487 40.752 16.938 10.45 10.448 16.937 24.876 16.937 40.752v95.468c0 6.71-5.44 12.15-12.15 12.15H62.237c-6.71 0-12.151-5.44-12.151-12.15v-93.802c0-16.335 6.675-31.177 17.427-41.929 10.752-10.752 25.596-17.427 41.93-17.427z"/><path fill="#DA9C69" d="M269.067 346.521h-11.406v-14.8c-34.434 19.44-68.869 16.689-103.302 0v14.8h-10.578c3.606 19.322 14.992 32.849 29.518 40.507 9.391 4.95 20.081 7.531 30.869 7.718 10.836.187 21.764-2.031 31.577-6.679 15.684-7.428 28.492-21.242 33.322-41.546z"/><path fill="#FED0D0" fill-rule="nonzero" d="M143.781 346.521c3.606 19.322 14.992 32.849 29.518 40.507 9.391 4.95 20.081 7.531 30.869 7.718 10.836.187 21.764-2.031 31.577-6.679 15.684-7.428 28.492-21.242 33.322-41.546h20.66c-5.17 30.029-22.956 49.209-45.36 59.819-12.601 5.967-26.621 8.817-40.516 8.577-13.944-.241-27.781-3.589-39.964-10.011-21.023-11.083-36.978-29.599-40.614-58.385h20.508z"/></svg>