<?xml version="1.0" encoding="utf-8"?><svg version="1.1" id="Layer_1" xmlns="http://www.w3.org/2000/svg" xmlns:xlink="http://www.w3.org/1999/xlink" x="0px" y="0px" viewBox="0 0 115.59 122.88" style="enable-background:new 0 0 115.59 122.88" xml:space="preserve"><style type="text/css">.st0{fill-rule:evenodd;clip-rule:evenodd;}</style><g><path class="st0" d="M25.58,89.68c4.46-1.98,6.57-2.92,10.89-7.35C21.3,78.92,14.89,74.3,14.89,54.28v-6.68 c0.91-14.65,4.8-27.62,13.15-37.11C38.28-1.16,71.78-6.57,86.27,12.92c17.47,23.49,23.04,66.16-7.07,70.12 c3.89,3.81,5.4,4.38,9.58,5.95c1.15,0.43,2.45,0.92,3.38,1.29l0,0.01c0.07,0.03,0.14,0.06,0.21,0.09 c5.62,2.99,10.53,6.8,14.49,11.72c3.94,4.9,6.91,10.88,8.66,18.22c0.05,0.18,0.08,0.37,0.08,0.57c0,1.1-0.89,1.99-1.99,1.99H1.99v0 c-0.13,0-0.27-0.01-0.41-0.04c-1.08-0.22-1.77-1.28-1.54-2.35c1.45-6.88,3.93-12.83,7.57-17.76c3.67-4.96,8.5-8.85,14.6-11.53l0,0 C23.17,90.75,24.44,90.19,25.58,89.68L25.58,89.68z M58.9,88.03c0.41-0.02,0.82-0.04,1.21-0.06c7.13-0.52,15.39-4.24,20.69-10.94 c3.11-3.94,3.84-8.15,5.74-14.1c5.79,1.02,10.53-18.46,3.87-17.03l-1-11.05c-10.73,5.1-15.2-8.87-23.52-6.81 c-14.65,3.63-29.69,16.58-39.42,6.69L25.37,45.8c-6.7-1.69-2.57,18.07,3.59,16.33c2.23,6.43,3.39,11.04,6.96,15.23 c5.82,6.81,14.9,10.52,22.04,10.67C58.28,88.03,58.59,88.03,58.9,88.03L58.9,88.03z M69.25,55.42c-0.03,0.15-0.05,0.3-0.05,0.46 c0,1.29,1.04,2.33,2.33,2.33c1.29,0,2.33-1.04,2.33-2.33c0-0.3-0.06-0.58-0.16-0.85c1.2,0.09,2.42,0.33,3.65,0.73 c0.58,0.19,1.19-0.2,1.36-0.86c0.17-0.66-0.17-1.35-0.76-1.54c-1.77-0.58-3.53-0.86-5.29-0.86c-1.76,0-3.5,0.29-5.23,0.86 c-0.58,0.19-0.92,0.88-0.75,1.54c0.17,0.66,0.78,1.04,1.36,0.85C68.44,55.64,68.84,55.52,69.25,55.42L69.25,55.42z M49.29,73.44 c-0.54-0.43-0.62-1.21-0.2-1.74c0.43-0.53,1.21-0.62,1.74-0.19c2.57,2.05,4.97,3.06,7.21,3.05c2.18-0.01,4.28-1.01,6.3-2.98 c0.49-0.48,1.28-0.47,1.76,0.02c0.48,0.49,0.47,1.28-0.02,1.76c-2.49,2.43-5.17,3.67-8.04,3.68 C55.23,77.05,52.31,75.86,49.29,73.44L49.29,73.44z M54.26,65.59c-0.51-0.46-0.55-1.25-0.08-1.76c0.46-0.51,1.25-0.55,1.76-0.08 c0.63,0.58,1.23,0.85,1.78,0.85c0.56-0.01,1.17-0.3,1.83-0.87c0.52-0.45,1.3-0.39,1.75,0.13c0.45,0.52,0.39,1.3-0.13,1.75 c-1.1,0.95-2.24,1.46-3.43,1.47C56.54,67.09,55.38,66.61,54.26,65.59L54.26,65.59z M38.3,56c-0.57,0.22-1.2-0.12-1.4-0.78 c-0.2-0.65,0.11-1.36,0.68-1.59c1.76-0.69,3.54-1.01,5.32-1c1.77,0.01,3.53,0.36,5.28,0.99c0.58,0.21,0.9,0.91,0.71,1.56 c-0.18,0.66-0.8,1.02-1.38,0.81c-0.4-0.14-0.79-0.27-1.18-0.38c0.04,0.16,0.05,0.33,0.05,0.51c0,1.29-1.04,2.33-2.33,2.33 c-1.29,0-2.33-1.04-2.33-2.33c0-0.35,0.08-0.67,0.21-0.97C40.74,55.25,39.52,55.53,38.3,56L38.3,56z M37.51,48.99 c-0.53,0.44-1.31,0.36-1.75-0.17c-0.44-0.53-0.36-1.31,0.17-1.75c2.6-2.15,6.75-1.41,10.3-0.77c1.5,0.27,2.88,0.52,3.83,0.48 c0.69-0.02,1.26,0.51,1.29,1.2c0.02,0.69-0.51,1.26-1.2,1.29c-1.21,0.04-2.72-0.23-4.36-0.52C42.76,48.21,39.23,47.57,37.51,48.99 L37.51,48.99z M79.66,46.83c0.53,0.44,0.61,1.22,0.17,1.75c-0.44,0.53-1.22,0.61-1.75,0.17c-1.72-1.42-5.25-0.79-8.29-0.24 c-1.64,0.29-3.14,0.57-4.36,0.52c-0.69-0.02-1.22-0.6-1.2-1.29c0.02-0.69,0.6-1.22,1.29-1.2c0.95,0.03,2.33-0.21,3.83-0.48 C72.92,45.43,77.06,44.68,79.66,46.83L79.66,46.83z M39.28,84.6c-5.22,5.37-7.14,5.57-13.91,8.71 c6.84,19.62,52.16,26.15,63.08-0.87c-6.84-2.83-7.65-2.58-12.86-7.83C66.92,93.24,48.32,92.45,39.28,84.6L39.28,84.6z"/></g></svg>